<?xml version="1.0" encoding="UTF-8" standalone="no"?>
<!DOCTYPE svg PUBLIC "-//W3C//DTD SVG 1.1//EN" "http://www.w3.org/Graphics/SVG/1.1/DTD/svg11.dtd">
<svg width="100%" height="100%" viewBox="0 0 1024 1024" version="1.1" xmlns="http://www.w3.org/2000/svg" xmlns:xlink="http://www.w3.org/1999/xlink" xml:space="preserve" xmlns:serif="http://www.serif.com/" style="fill-rule:evenodd;clip-rule:evenodd;stroke-linejoin:round;stroke-miterlimit:2;">
    <g transform="matrix(1.72348,0,0,1.82288,-553.31,-224.157)">
        <path d="M1040.27,194.161C1040.27,130.256 985.396,78.373 917.805,78.373L338.873,78.373C271.282,78.373 216.407,130.256 216.407,194.161L216.407,565.703C216.407,629.609 271.282,681.492 338.873,681.492L917.805,681.492C985.396,681.492 1040.27,629.609 1040.27,565.703L1040.27,194.161Z" style="fill:rgb(73,49,39);"/>
    </g>
    <g transform="matrix(1.55752,0,0,1.62391,-473.286,-48.3738)">
        <path d="M1040.27,194.161C1040.27,130.256 986.177,78.373 919.548,78.373L337.13,78.373C270.501,78.373 216.407,130.256 216.407,194.161L216.407,565.703C216.407,629.609 270.501,681.492 337.13,681.492L919.548,681.492C986.177,681.492 1040.27,629.609 1040.27,565.703L1040.27,194.161Z" style="fill:rgb(103,64,43);"/>
    </g>
    <g transform="matrix(1.44438,0,0,1.62391,-400.455,48.4051)">
        <path d="M1040.27,194.161C1040.27,130.256 981.94,78.373 910.092,78.373L346.586,78.373C274.738,78.373 216.407,130.256 216.407,194.161L216.407,565.703C216.407,629.609 274.738,681.492 346.586,681.492L910.092,681.492C981.94,681.492 1040.27,629.609 1040.27,565.703L1040.27,194.161Z" style="fill:rgb(217,188,161);"/>
    </g>
    <g transform="matrix(1.00212,0,0,0.741986,-141.557,240.301)">
        <rect x="47.601" y="626.969" width="1187.67" height="106.26" style="fill:rgb(241,222,199);"/>
    </g>
    <g transform="matrix(1.25447,0,0,1.25447,-136.374,-182.871)">
        <g transform="matrix(2.01984,0,0,2.06219,-770.185,-474.681)">
            <path d="M828.911,573.621C828.912,573.306 828.913,572.991 828.913,572.676C828.913,468.408 742.486,383.756 636.032,383.756C529.578,383.756 443.15,468.408 443.15,572.676C443.15,572.991 443.151,573.306 443.153,573.621L828.911,573.621Z" style="fill:rgb(241,222,199);"/>
        </g>
        <g transform="matrix(1.90767,0,0,1.95019,-698.764,-410.288)">
            <path d="M828.911,573.621C828.912,573.306 828.913,572.991 828.913,572.676C828.913,468.408 742.486,383.756 636.032,383.756C529.578,383.756 443.15,468.408 443.15,572.676C443.15,572.991 443.151,573.306 443.153,573.621L828.911,573.621Z" style="fill:rgb(207,210,211);"/>
        </g>
        <g transform="matrix(0.950264,0.311445,-0.311445,0.950264,86.8988,-56.7415)">
            <g transform="matrix(1.4596,-0.446237,0.490587,1.60467,-806.236,71.0141)">
                <path d="M826.119,331.266C820.136,330.859 814.139,330.655 808.14,330.655C802.14,330.655 796.143,330.859 790.161,331.266L808.14,549.923L826.119,331.266Z" style="fill:rgb(229,143,96);"/>
            </g>
            <g transform="matrix(1.45885,0.448703,-0.493298,1.60384,-264.564,-651.765)">
                <path d="M826.119,331.266C820.136,330.859 814.139,330.655 808.14,330.655C802.14,330.655 796.143,330.859 790.161,331.266L808.14,549.923L826.119,331.266Z" style="fill:rgb(229,143,96);"/>
            </g>
            <g transform="matrix(1.50944,-0.226218,0.248702,1.65945,-713.489,-136.919)">
                <path d="M826.119,331.266C820.136,330.859 814.139,330.655 808.14,330.655C802.14,330.655 796.143,330.859 790.161,331.266L808.14,549.923L826.119,331.266Z" style="fill:rgb(225,174,58);"/>
            </g>
            <g transform="matrix(1.50928,0.227264,-0.249851,1.65928,-439.196,-503.301)">
                <path d="M826.119,331.266C820.136,330.859 814.139,330.655 808.14,330.655C802.14,330.655 796.143,330.859 790.161,331.266L808.14,549.923L826.119,331.266Z" style="fill:rgb(225,174,58);"/>
            </g>
            <g transform="matrix(1.52629,0,0,1.67799,-590.345,-329.926)">
                <path d="M826.119,331.266C820.136,330.859 814.139,330.655 808.14,330.655C802.14,330.655 796.143,330.859 790.161,331.266L808.14,549.923L826.119,331.266Z" style="fill:rgb(45,178,174);"/>
            </g>
        </g>
        <g transform="matrix(1.30218,0.8105,-0.483656,0.777062,53.1314,-187.916)">
            <path d="M556.186,167.856C556.186,166.648 555.6,165.667 554.88,165.667L552.268,165.667C551.547,165.667 550.962,166.648 550.962,167.856L550.962,562.208C550.962,563.415 551.547,564.396 552.268,564.396L554.88,564.396C555.6,564.396 556.186,563.415 556.186,562.208L556.186,167.856Z" style="fill:rgb(255,82,62);"/>
        </g>
        <g transform="matrix(0.291029,0.287181,-0.355923,0.360693,599.856,515.758)">
            <g transform="matrix(2.50998,-1.56691,1.95816,2.04208,-1496.08,-676.76)">
                <ellipse cx="155.501" cy="643.144" rx="54.368" ry="53.7" style="fill:rgb(241,222,199);"/>
            </g>
            <g transform="matrix(2.25308,-1.40653,1.76387,1.83946,-1330.62,-571.092)">
                <ellipse cx="155.501" cy="643.144" rx="54.368" ry="53.7" style="fill:rgb(103,64,43);"/>
            </g>
            <g transform="matrix(1.93171,-1.20591,1.51286,1.5777,-1119.27,-434.352)">
                <ellipse cx="155.501" cy="643.144" rx="54.368" ry="53.7" style="fill:rgb(241,222,199);"/>
            </g>
            <g transform="matrix(1.67481,-1.04554,1.31089,1.36707,-950.144,-323.672)">
                <ellipse cx="155.501" cy="643.144" rx="54.368" ry="53.7" style="fill:rgb(103,64,43);"/>
            </g>
        </g>
    </g>
    <g transform="matrix(5.86511,0.0587004,-0.0183335,1.83181,-2824.23,-901.702)">
        <g transform="matrix(0.852312,0,-1.10889e-18,0.852312,68.7261,543.444)">
            <path d="M502.098,512.422C502.084,513.486 500.955,516.511 499.677,516.453C498.229,516.386 496.595,513.141 496.294,512.876C495.686,512.412 494.176,508.321 494.37,505.912C494.438,505.152 494.532,494.002 494.723,493.138C493.659,494.044 491.71,506.021 491.281,508.771C490.853,511.52 491.167,519.901 491.595,522.411C491.841,523.853 492.39,528.955 493.656,531.856C494.594,534.006 495.501,535.822 496.983,537.063C497.505,537.499 499.106,539.019 500.729,538.374C502.253,537.769 503.754,533.389 504.339,532.007C505.547,529.154 507.32,517.647 507.43,512.645L508.346,457.745L512.289,454.595L511.926,475.52C511.89,478.776 512.309,481.049 513.182,482.338C514.056,483.626 514.963,483.87 515.904,483.068C519.135,480.314 520.825,472.984 520.974,461.076L519.256,462.54C519.264,468.424 518.712,472.33 517.603,474.258C516.951,475.374 516.493,475.134 516.228,473.536C516.155,473.178 516.111,472.654 516.098,471.964L519.295,380.601L512.705,397.442L512.379,447.786L508.453,451.132L508.795,432.329L504.561,435.937C502.293,438.151 500.372,441.26 498.8,445.265C497.227,449.27 496.366,453.791 496.215,458.828C496.034,464.03 496.639,467.091 498.03,468.01C499.286,468.902 500.301,467.406 501.073,463.523C501.594,460.834 501.773,457.456 501.61,453.388C500.975,455.753 500.525,456.136 500.26,454.538C499.933,452.713 500.205,450.448 501.075,447.743C501.834,445.274 502.944,443.346 504.405,441.96L502.098,512.422Z" style="fill:rgb(73,49,39);fill-rule:nonzero;"/>
            <path d="M523.791,456.366C524.599,455.46 525.352,454.173 526.05,452.505C526.748,450.838 527.255,449.218 527.57,447.646C527.886,446.074 527.892,444.898 527.587,444.118C526.977,442.558 526.209,443.234 525.283,446.144C524.358,449.053 523.86,452.461 523.791,456.366ZM524.459,466.513C524.879,467.774 525.509,468.218 526.348,467.844C527.188,467.47 527.997,466.217 528.775,464.087C529.553,461.957 529.984,459.418 530.067,456.47L531.813,455.405C531.356,467.273 529.298,474.322 525.639,476.554C522.77,478.304 520.901,475.857 520.031,469.214C519.301,463.451 519.551,457.159 520.782,450.338C521.879,444.15 523.446,440.435 525.484,439.192C527.688,437.848 528.902,439.797 529.128,445.04C529.253,447.861 528.806,450.858 527.789,454.031C526.771,457.204 525.419,459.098 523.732,459.713C523.732,462.611 523.974,464.877 524.459,466.513Z" style="fill:rgb(73,49,39);fill-rule:nonzero;"/>
            <path d="M539.245,438.623L534.316,467.389C533.958,469.882 533.358,471.528 532.518,472.326C531.677,473.124 530.953,472.705 530.344,471.068C529.736,469.432 529.584,466.763 529.888,463.063L531.396,435.258L535.679,433.489L534.215,460.864C535.781,452.885 537.287,444.524 538.732,435.779C539.061,433.574 539.644,432.038 540.482,431.173C541.319,430.308 542.057,430.549 542.695,431.898C543.333,433.247 543.578,435.599 543.429,438.954C542.15,444.746 541.975,448.935 542.904,451.519C543.551,453.548 544.236,453.575 544.96,451.598C545.343,450.6 545.582,449.258 545.677,447.571L547.437,446.76C547.306,450.517 546.813,453.345 545.958,455.246C545.103,457.146 544.238,458.127 543.364,458.187C542.49,458.248 541.778,457.857 541.227,457.016C539.43,454.147 538.769,448.016 539.245,438.623Z" style="fill:rgb(73,49,39);fill-rule:nonzero;"/>
            <path d="M550.031,443.811C550.86,443.133 551.645,442.061 552.386,440.595C553.127,439.128 553.676,437.656 554.033,436.178C554.39,434.7 554.428,433.53 554.145,432.668C553.58,430.944 552.797,431.403 551.796,434.043C550.794,436.684 550.206,439.94 550.031,443.811ZM550.42,454.105C550.804,455.479 551.419,456.097 552.266,455.958C553.112,455.82 553.952,454.798 554.785,452.893C555.618,450.988 556.116,448.579 556.28,445.666L558.048,445.092C557.27,456.787 555.027,463.235 551.322,464.437C548.416,465.38 546.62,462.421 545.935,455.56C545.364,449.615 545.785,443.417 547.198,436.965C548.459,431.107 550.121,427.844 552.185,427.174C554.416,426.45 555.574,428.731 555.656,434.017C555.703,436.862 555.177,439.723 554.077,442.6C552.976,445.477 551.578,446.987 549.88,447.129C549.802,450.015 549.982,452.34 550.42,454.105Z" style="fill:rgb(73,49,39);fill-rule:nonzero;"/>
            <path d="M568.811,500.021C562.291,501.116 559.978,502.336 555.289,503.4C534.584,508.094 501.014,538.641 501.014,538.641L504.611,508.73C506.897,509.936 515.353,499.203 528.291,490.16C538.99,482.682 565.538,470.39 571.495,469.619" style="fill:rgb(73,49,39);fill-rule:nonzero;"/>
        </g>
        <g transform="matrix(0.943878,3.46945e-18,-8.18684e-19,0.943878,14.2987,506.369)">
            <g transform="matrix(0.832243,2.11714e-17,-8.72413e-20,0.812129,99.1709,124.067)">
                <path d="M588.738,390.443C588.532,392.481 587.503,412.366 587.174,415.696C586.844,419.025 586.33,424.325 585.63,431.596C584.93,438.866 584.395,444.269 584.023,447.803C583.571,452.559 582.638,455.838 581.225,457.64C579.812,459.441 578.617,459.746 577.64,458.553C576.663,457.361 576.065,455.379 575.846,452.607C575.627,449.834 575.821,447.288 576.428,444.967C577.036,442.646 577.911,441.469 579.054,441.437C578.255,443.492 578.049,445.396 578.434,447.147C578.777,448.492 579.137,448.618 579.515,447.523C579.683,447.112 579.787,446.567 579.828,445.888L581.682,427.539C582.67,417.211 585.063,393.053 587.339,389.466C586.788,389.21 586.174,389.092 585.497,389.111C582.576,389.193 577.378,388.232 576.501,392.458C576.083,394.503 576.108,395.789 576.575,396.318C576.829,396.582 577.167,396.234 577.588,395.273C577.394,401.92 576.537,405.874 575.017,407.137C573.792,408.255 572.859,407.265 572.215,404.166C571.786,402.01 571.694,399.369 571.939,396.245C572.309,392.034 573.274,388.822 574.834,386.609C576.394,384.397 581.596,383.398 583.605,382.867C585.614,382.336 588.075,382.38 590.043,382.054C592.01,381.728 593.419,380.184 594.918,379.125C596.418,378.067 598.466,367.831 598.67,365.386C599.648,364.12 599.978,372.868 600.054,376.471C600.152,381.104 599.153,386.227 598.706,388.146C597.366,393.74 593.151,394.114 588.738,390.443Z" style="fill:rgb(73,49,39);fill-rule:nonzero;"/>
            </g>
            <g transform="matrix(0.744466,2.77556e-17,8.67362e-19,0.817286,150.655,121.041)">
                <path d="M595.201,427.717C594.059,427.658 593.093,430.251 592.304,435.496C591.516,440.741 591.476,444.466 592.184,446.672C592.392,447.36 592.708,447.716 593.131,447.738C594.274,447.797 595.26,445.341 596.09,440.369C596.92,435.126 596.982,431.334 596.274,428.993C596.024,428.167 595.667,427.742 595.201,427.717ZM598.193,451.254C597.462,453.52 596.575,455.27 595.531,456.503C594.488,457.737 593.331,458.32 592.062,458.254C590.073,458.151 588.718,456.013 587.999,451.842C587.279,447.67 587.229,442.957 587.848,437.704C588.422,432.99 589.416,429.077 590.829,425.965C592.242,422.853 593.964,421.35 595.995,421.456C597.476,421.533 598.634,422.78 599.469,425.195C600.303,427.61 600.701,430.511 600.663,433.898C600.624,437.284 600.342,440.794 599.815,444.426C600.149,445.392 600.571,445.618 601.082,445.102C601.593,444.586 601.916,443.451 602.052,441.696L603.893,441.792C602.912,451.5 601.012,454.654 598.193,451.254Z" style="fill:rgb(73,49,39);fill-rule:nonzero;"/>
            </g>
        </g>
        <g transform="matrix(0.87481,9.48886e-18,-3.54568e-18,0.87481,52.4543,536.304)">
            <path d="M616.052,466.537C619.702,466.065 622.467,469.095 626.212,471.933C630.662,475.305 635.008,479.486 638.692,481.354C652.259,488.237 661.915,492.936 667.661,495.453C667.744,495.492 667.849,495.54 667.975,495.598C669.022,496.082 669.82,496.416 670.367,496.601C670.915,496.785 671.686,497.004 672.679,497.258C673.673,497.511 674.449,497.596 675.009,497.512C675.569,497.428 676.283,497.245 677.151,496.961C678.019,496.677 678.727,496.148 679.275,495.375C679.823,494.601 685.038,489.461 685.309,486.3L683.694,494.592C683.387,498.558 680.68,502.391 679.967,503.499C679.255,504.608 678.392,505.476 677.38,506.104C676.368,506.732 675.472,507.174 674.691,507.429C673.909,507.684 672.943,507.786 671.79,507.733C670.638,507.68 669.68,507.58 668.917,507.433C668.154,507.285 667.159,507.065 665.932,506.773C662.083,505.817 654.708,503.403 643.806,499.532C637.395,497.255 619.481,495.337 612.143,496.569" style="fill:rgb(73,49,39);fill-rule:nonzero;"/>
            <path d="M679.826,476.997C680.668,477.49 681.521,477.566 682.386,477.224C683.25,476.882 683.941,476.279 684.458,475.414C684.976,474.548 685.162,473.535 685.018,472.374C684.729,470.053 683.958,469.422 682.704,470.482C681.45,471.543 680.49,473.714 679.826,476.997ZM678.837,486.872C679.007,488.633 679.485,490.017 680.273,491.023C681.06,492.029 681.956,492.224 682.962,491.607C683.967,490.99 684.734,489.467 685.262,487.038L686.944,488.882C684.711,498.467 681.833,501.328 678.309,497.465C675.546,494.437 674.3,489.347 674.573,482.197C674.829,476.032 676.02,470.963 678.145,466.989C680.055,463.353 681.991,462.61 683.953,464.761C686.075,467.087 686.829,470.707 686.215,475.62C685.887,478.268 685.035,480.164 683.66,481.307C682.285,482.45 680.818,481.952 679.257,479.811C678.809,482.328 678.669,484.682 678.837,486.872Z" style="fill:rgb(73,49,39);fill-rule:nonzero;"/>
            <path d="M670.25,458.163L661.627,484.889C660.996,486.747 660.244,487.525 659.372,487.223C658.501,486.921 657.883,485.639 657.519,483.378C657.155,481.117 657.947,472.194 658.673,469.156L663.415,445.365L667.579,449.022L662.931,472.47C665.336,467.043 667.733,461.188 670.12,454.906C670.689,453.277 671.412,452.58 672.289,452.817C673.166,453.053 673.818,454.187 674.244,456.22C674.67,458.252 674.612,460.724 674.071,463.636C672.193,467.4 671.527,471.048 672.072,474.58C672.425,477.251 673.054,478.122 673.96,477.192C674.433,476.744 674.816,475.801 675.107,474.362L676.828,475.787C676.255,479.092 675.459,481.093 674.441,481.79C673.423,482.487 672.507,482.323 671.694,481.3C670.88,480.276 670.27,479.036 669.863,477.58C668.551,472.714 668.68,466.242 670.25,458.163Z" style="fill:rgb(73,49,39);fill-rule:nonzero;"/>
            <path d="M653.776,455.733C654.631,455.866 655.479,455.58 656.322,454.875C657.164,454.17 657.824,453.279 658.302,452.203C658.779,451.126 658.922,450.043 658.731,448.953C658.349,446.774 657.558,446.476 656.359,448.057C655.16,449.639 654.298,452.198 653.776,455.733ZM653.203,465.94C653.444,467.614 653.975,468.783 654.797,469.447C655.619,470.111 656.516,469.925 657.487,468.888C658.458,467.851 659.155,466.017 659.578,463.385L661.322,464.501C659.504,474.947 656.289,484.372 652.636,482.035C649.772,480.203 648.808,470.314 648.783,463.111C648.783,456.892 649.754,451.363 651.696,446.525C653.439,442.112 655.327,440.556 657.361,441.858C659.561,443.265 660.458,446.534 660.051,451.664C659.835,454.428 659.07,456.668 657.754,458.383C656.438,460.097 654.963,460.224 653.328,458.763C652.987,461.448 652.946,463.84 653.203,465.94Z" style="fill:rgb(73,49,39);fill-rule:nonzero;"/>
            <path d="M643.289,397.953L631.636,460.928C631.014,464.194 630.921,466.89 631.357,469.016C631.794,471.141 632.45,472.207 633.327,472.213C634.204,472.218 634.926,471.191 635.492,469.131L643.503,440.574L640.517,459.295C640.039,462.219 639.348,470.657 640.014,472.892C640.681,475.127 641.517,476.484 642.521,476.961C645.787,478.513 649.032,468.069 650.685,457.346L648.926,456.51C648.156,462.035 647.143,464.979 645.885,465.34C645.107,465.518 644.719,464.649 644.722,462.732C644.741,462.33 644.784,461.871 644.85,461.355L647.483,444.726C647.925,441.648 647.901,439.17 647.41,437.293C646.919,435.416 646.234,434.508 645.354,434.569C644.474,434.63 643.778,435.567 643.266,437.379C642.309,440.486 641.283,443.698 640.188,447.013C639.093,450.329 638.226,452.863 637.589,454.615L636.695,457.273L646.78,398.877L643.289,397.953Z" style="fill:rgb(73,49,39);fill-rule:nonzero;"/>
            <g transform="matrix(0.991635,0.413264,-0.0403121,0.991635,68.2316,-230.796)">
                <path d="M588.738,390.443C588.532,392.481 587.503,412.366 587.174,415.696C586.844,419.025 586.33,424.325 585.63,431.596C584.93,438.866 584.393,447.997 584.022,451.532C583.569,456.288 582.636,459.567 581.223,461.368C579.81,463.17 578.615,463.475 577.638,462.282C576.662,461.09 576.064,459.108 575.844,456.335C575.625,453.563 575.819,451.017 576.427,448.696C577.034,446.374 577.909,445.198 579.052,445.166C578.253,447.221 578.047,449.124 578.433,450.875C578.775,452.221 579.135,452.347 579.513,451.252C579.681,450.84 579.786,450.295 579.826,449.617L581.682,427.539C582.67,417.211 585.063,393.053 587.339,389.466C586.788,389.21 586.174,389.092 585.497,389.111C582.576,389.193 577.378,388.232 576.501,392.458C576.083,394.503 576.108,395.789 576.575,396.318C576.829,396.582 577.167,396.234 577.588,395.273C577.394,401.92 576.537,405.874 575.017,407.137C573.792,408.255 572.859,407.265 572.215,404.166C571.786,402.01 571.694,399.369 571.939,396.245C572.309,392.034 573.274,388.822 574.834,386.609C576.394,384.397 581.596,383.398 583.605,382.867C585.614,382.336 588.075,382.38 590.043,382.054C592.01,381.728 593.419,380.184 594.918,379.125C596.418,378.067 598.466,367.831 598.67,365.386C599.648,364.12 599.978,372.868 600.054,376.471C600.152,381.104 599.153,386.227 598.706,388.146C597.366,393.74 593.151,394.114 588.738,390.443Z" style="fill:rgb(73,49,39);fill-rule:nonzero;"/>
            </g>
        </g>
    </g>
</svg>
