<?xml version="1.0" encoding="UTF-8" standalone="no"?>
<!DOCTYPE svg PUBLIC "-//W3C//DTD SVG 1.1//EN" "http://www.w3.org/Graphics/SVG/1.1/DTD/svg11.dtd">
<svg width="100%" height="100%" viewBox="0 0 1024 1024" version="1.1" xmlns="http://www.w3.org/2000/svg" xmlns:xlink="http://www.w3.org/1999/xlink" xml:space="preserve" xmlns:serif="http://www.serif.com/" style="fill-rule:evenodd;clip-rule:evenodd;stroke-linejoin:round;stroke-miterlimit:2;">
    <g transform="matrix(1.72348,0,0,1.82288,-553.31,-224.157)">
        <path d="M1040.27,194.161C1040.27,130.256 985.396,78.373 917.805,78.373L338.873,78.373C271.282,78.373 216.407,130.256 216.407,194.161L216.407,565.703C216.407,629.609 271.282,681.492 338.873,681.492L917.805,681.492C985.396,681.492 1040.27,629.609 1040.27,565.703L1040.27,194.161Z" style="fill:rgb(73,49,39);"/>
    </g>
    <g transform="matrix(1.6271,0,0,1.62391,-589.413,-57.1644)">
        <path d="M1040.27,194.161C1040.27,130.256 988.49,78.373 924.71,78.373L331.968,78.373C268.188,78.373 216.407,130.256 216.407,194.161L216.407,565.703C216.407,629.609 268.188,681.492 331.968,681.492L924.71,681.492C988.49,681.492 1040.27,629.609 1040.27,565.703L1040.27,194.161Z" style="fill:rgb(103,64,43);"/>
    </g>
    <g transform="matrix(1.57857,0,0,1.62391,-591.23,44.3105)">
        <path d="M1040.27,194.161C1040.27,130.256 986.898,78.373 921.158,78.373L335.52,78.373C269.78,78.373 216.407,130.256 216.407,194.161L216.407,565.703C216.407,629.609 269.78,681.492 335.52,681.492L921.158,681.492C986.898,681.492 1040.27,629.609 1040.27,565.703L1040.27,194.161Z" style="fill:rgb(217,188,161);"/>
    </g>
    <g transform="matrix(2.68848,0,0,2.68848,-1403.71,-645.825)">
        <g transform="matrix(2.01984,0,0,2.06219,-770.185,-474.681)">
            <path d="M828.911,573.621C828.912,573.306 828.913,572.991 828.913,572.676C828.913,468.408 742.486,383.756 636.032,383.756C529.578,383.756 443.15,468.408 443.15,572.676C443.15,572.991 443.151,573.306 443.153,573.621L828.911,573.621Z" style="fill:rgb(241,222,199);"/>
        </g>
        <g transform="matrix(1.90767,0,0,1.95019,-698.764,-410.288)">
            <path d="M828.911,573.621C828.912,573.306 828.913,572.991 828.913,572.676C828.913,468.408 742.486,383.756 636.032,383.756C529.578,383.756 443.15,468.408 443.15,572.676C443.15,572.991 443.151,573.306 443.153,573.621L828.911,573.621Z" style="fill:rgb(207,210,211);"/>
        </g>
        <g transform="matrix(0.883525,0.468385,-0.468385,0.883525,222.86,-118.106)">
            <g transform="matrix(1.4596,-0.446237,0.490587,1.60467,-806.236,71.0141)">
                <path d="M826.119,331.266C820.136,330.859 814.139,330.655 808.14,330.655C802.14,330.655 796.143,330.859 790.161,331.266L808.14,549.923L826.119,331.266Z" style="fill:rgb(229,143,96);"/>
            </g>
            <g transform="matrix(1.45885,0.448703,-0.493298,1.60384,-264.564,-651.765)">
                <path d="M826.119,331.266C820.136,330.859 814.139,330.655 808.14,330.655C802.14,330.655 796.143,330.859 790.161,331.266L808.14,549.923L826.119,331.266Z" style="fill:rgb(229,143,96);"/>
            </g>
            <g transform="matrix(1.50944,-0.226218,0.248702,1.65945,-713.489,-136.919)">
                <path d="M826.119,331.266C820.136,330.859 814.139,330.655 808.14,330.655C802.14,330.655 796.143,330.859 790.161,331.266L808.14,549.923L826.119,331.266Z" style="fill:rgb(225,174,58);"/>
            </g>
            <g transform="matrix(1.50928,0.227264,-0.249851,1.65928,-439.196,-503.301)">
                <path d="M826.119,331.266C820.136,330.859 814.139,330.655 808.14,330.655C802.14,330.655 796.143,330.859 790.161,331.266L808.14,549.923L826.119,331.266Z" style="fill:rgb(225,174,58);"/>
            </g>
            <g transform="matrix(1.52629,0,0,1.67799,-590.345,-329.926)">
                <path d="M826.119,331.266C820.136,330.859 814.139,330.655 808.14,330.655C802.14,330.655 796.143,330.859 790.161,331.266L808.14,549.923L826.119,331.266Z" style="fill:rgb(45,178,174);"/>
            </g>
        </g>
        <g transform="matrix(1.25011,0.888714,-0.530329,0.745989,119.756,-206.516)">
            <path d="M556.186,167.856C556.186,166.648 555.6,165.667 554.88,165.667L552.268,165.667C551.547,165.667 550.962,166.648 550.962,167.856L550.962,562.208C550.962,563.415 551.547,564.396 552.268,564.396L554.88,564.396C555.6,564.396 556.186,563.415 556.186,562.208L556.186,167.856Z" style="fill:rgb(255,82,62);"/>
        </g>
    </g>
</svg>
